<?xml version="1.0" encoding="UTF-8"?>
<!DOCTYPE svg PUBLIC "-//W3C//DTD SVG 1.1//EN" "http://www.w3.org/Graphics/SVG/1.1/DTD/svg11.dtd">
<!-- Creator: CorelDRAW -->
<svg xmlns="http://www.w3.org/2000/svg" xml:space="preserve" width="17.3742mm" height="17.3719mm" version="1.1" style="shape-rendering:geometricPrecision; text-rendering:geometricPrecision; image-rendering:optimizeQuality; fill-rule:evenodd; clip-rule:evenodd"
viewBox="0 0 1023.29 1023.16"
 xmlns:xlink="http://www.w3.org/1999/xlink"
 xmlns:xodm="http://www.corel.com/coreldraw/odm/2003">
 <defs>
  <style type="text/css">
   <![CDATA[
    .fil0 {fill:#00BFFF}
   ]]>
  </style>
 </defs>
 <g id="Layer_x0020_1">
  <metadata id="CorelCorpID_0Corel-Layer"/>
  <g id="_1827477734656">
   <path class="fil0" d="M922.14 585.74c18.12,18.3 35.53,36.06 48.5,49.03 43.7,43.7 45.65,97.7 46.9,129.32 1.24,31.62 14.74,227.03 -4.79,248.52 -21.31,19.54 -216.72,6.22 -248.52,4.79 -31.62,-1.24 -85.62,-3.2 -129.32,-46.9 -12.97,-12.97 -30.73,-30.38 -49.03,-48.5l336.27 -336.27 -0.01 0.01z"/>
   <path class="fil0" d="M511.62 173.8c29.13,-28.42 90.6,-88.46 123.28,-121.15 43.7,-43.7 97.52,-45.65 129.32,-46.9 31.62,-1.24 227.03,-14.74 248.52,4.79 19.54,21.31 6.22,216.72 4.79,248.52 -1.24,31.62 -3.2,85.62 -46.9,129.32 -236.8,236.79 -402.36,402.35 -582.12,582.12 -43.7,43.7 -97.52,45.65 -129.32,46.9 -31.62,1.24 -227.03,14.74 -248.52,-4.79 -19.54,-21.31 -6.22,-216.72 -4.79,-248.52 1.24,-31.62 3.2,-85.62 46.9,-129.32 32.51,-32.51 92.55,-93.97 121.15,-123.28l337.86 -337.86 -0.18 0.18zm-386.84 724.67c9.34,-0.29 18.03,-0.62 25.3,-0.85 34.83,-1.07 69.46,-3.42 104.21,-4.78 13.36,-0.52 35.76,-0.17 46.06,-10.48 194.04,-194.05 388.08,-388.09 582.13,-582.13 10.26,-10.26 9.94,-33.12 10.5,-46.41 1.45,-34.67 3.73,-69.18 4.8,-103.92 0.22,-7.25 0.56,-15.91 0.85,-25.21 -9.34,0.29 -18.03,0.62 -25.3,0.85 -34.83,1.07 -69.46,3.42 -104.21,4.78 -13.37,0.52 -35.76,0.17 -46.06,10.48 -40.92,40.92 -82.46,81.33 -123.88,121.75l-336.55 336.54c-40.04,41.05 -80.61,82.75 -121.69,123.83 -10.26,10.26 -9.94,33.12 -10.5,46.41 -1.45,34.67 -3.73,69.18 -4.8,103.92 -0.22,7.25 -0.56,15.91 -0.85,25.21z"/>
   <path class="fil0" d="M101.1 437.42c-18.12,-18.3 -35.53,-36.06 -48.5,-49.03 -43.7,-43.7 -45.65,-97.52 -46.9,-129.32 -1.24,-31.62 -14.74,-227.03 4.79,-248.52 21.31,-19.54 216.72,-6.22 248.52,-4.79 31.62,1.24 85.62,3.2 129.32,46.9 12.97,12.97 30.73,30.38 49.03,48.5l-336.27 336.27 0.01 -0.01z"/>
  </g>
 </g>
</svg>
