<?xml version="1.0" encoding="UTF-8"?>
<!DOCTYPE svg PUBLIC "-//W3C//DTD SVG 1.1//EN" "http://www.w3.org/Graphics/SVG/1.1/DTD/svg11.dtd">
<!-- Creator: CorelDRAW -->
<svg xmlns="http://www.w3.org/2000/svg" xml:space="preserve" width="17.3742mm" height="17.3719mm" version="1.1" style="shape-rendering:geometricPrecision; text-rendering:geometricPrecision; image-rendering:optimizeQuality; fill-rule:evenodd; clip-rule:evenodd"
viewBox="0 0 99.2 99.18"
 xmlns:xlink="http://www.w3.org/1999/xlink"
 xmlns:xodm="http://www.corel.com/coreldraw/odm/2003">
 <defs>
  <style type="text/css">
   <![CDATA[
    .fil0 {fill:#858585;fill-opacity:0.501961}
   ]]>
  </style>
 </defs>
 <g id="Layer_x0020_1">
  <metadata id="CorelCorpID_0Corel-Layer"/>
  <g id="_2780409517040">
   <path class="fil0" d="M89.39 56.78c1.76,1.77 3.44,3.5 4.7,4.75 4.24,4.24 4.43,9.47 4.55,12.54 0.12,3.07 1.43,22.01 -0.46,24.09 -2.07,1.89 -21.01,0.6 -24.09,0.46 -3.07,-0.12 -8.3,-0.31 -12.54,-4.55 -1.26,-1.26 -2.98,-2.94 -4.75,-4.7l32.6 -32.6 -0 0z"/>
   <path class="fil0" d="M49.6 16.85c2.82,-2.76 8.78,-8.58 11.95,-11.74 4.24,-4.24 9.45,-4.43 12.54,-4.55 3.07,-0.12 22.01,-1.43 24.09,0.46 1.89,2.07 0.6,21.01 0.46,24.09 -0.12,3.07 -0.31,8.3 -4.55,12.54 -22.95,22.95 -39,39 -56.43,56.43 -4.24,4.24 -9.45,4.43 -12.54,4.55 -3.07,0.12 -22.01,1.43 -24.09,-0.46 -1.89,-2.07 -0.6,-21.01 -0.46,-24.09 0.12,-3.07 0.31,-8.3 4.55,-12.54 3.15,-3.15 8.97,-9.11 11.74,-11.95l32.75 -32.75 -0.02 0.02zm-37.5 70.25c0.9,-0.03 1.75,-0.06 2.45,-0.08 3.38,-0.1 6.73,-0.33 10.1,-0.46 1.3,-0.05 3.47,-0.02 4.47,-1.02 18.81,-18.81 37.62,-37.62 56.43,-56.43 0.99,-0.99 0.96,-3.21 1.02,-4.5 0.14,-3.36 0.36,-6.71 0.47,-10.07 0.02,-0.7 0.05,-1.54 0.08,-2.44 -0.9,0.03 -1.75,0.06 -2.45,0.08 -3.38,0.1 -6.73,0.33 -10.1,0.46 -1.3,0.05 -3.47,0.02 -4.47,1.02 -3.97,3.97 -7.99,7.88 -12.01,11.8l-32.62 32.62c-3.88,3.98 -7.81,8.02 -11.8,12 -0.99,0.99 -0.96,3.21 -1.02,4.5 -0.14,3.36 -0.36,6.71 -0.47,10.07 -0.02,0.7 -0.05,1.54 -0.08,2.44z"/>
   <path class="fil0" d="M9.8 42.4c-1.76,-1.77 -3.44,-3.5 -4.7,-4.75 -4.24,-4.24 -4.43,-9.45 -4.55,-12.54 -0.12,-3.07 -1.43,-22.01 0.46,-24.09 2.07,-1.89 21.01,-0.6 24.09,-0.46 3.07,0.12 8.3,0.31 12.54,4.55 1.26,1.26 2.98,2.94 4.75,4.7l-32.6 32.6 0 -0z"/>
  </g>
 </g>
</svg>
