<?xml version="1.0" encoding="UTF-8"?>
<!DOCTYPE svg PUBLIC "-//W3C//DTD SVG 1.1//EN" "http://www.w3.org/Graphics/SVG/1.1/DTD/svg11.dtd">
<!-- Creator: CorelDRAW -->
<svg xmlns="http://www.w3.org/2000/svg" xml:space="preserve" width="154.562mm" height="79.375mm" version="1.1" style="shape-rendering:geometricPrecision; text-rendering:geometricPrecision; image-rendering:optimizeQuality; fill-rule:evenodd; clip-rule:evenodd"
viewBox="0 0 60951.24 31301.42"
 xmlns:xlink="http://www.w3.org/1999/xlink"
 xmlns:xodm="http://www.corel.com/coreldraw/odm/2003">
 <defs>
  <style type="text/css">
   <![CDATA[
    .str0 {stroke:#999999;stroke-width:1043.37;stroke-linecap:round;stroke-linejoin:round;stroke-miterlimit:22.9256;stroke-opacity:0.501961}
    .fil1 {fill:none}
    .fil0 {fill:gray;fill-opacity:0.200000}
   ]]>
  </style>
 </defs>
 <g id="Layer_x0020_1">
  <metadata id="CorelCorpID_0Corel-Layer"/>
  <g id="_2318681822592">
   <polygon class="fil0" points="-0,0 60951.24,0 60951.24,31301.42 -0,31301.42 "/>
   <path class="fil1 str0" d="M32801.92 12549.28l7.61 0m-9312.58 -3877.2l13957.02 13957.02m-3621.07 -6716.39c445.14,-41.88 895.61,128.68 1295.04,513.44l2326.3 2326.34m-13957.3 -0.32l3876.88 -3876.88c719.49,-692.52 1606.58,-692.52 2326.34,0l3876.88 3876.88m-6978.35 -10080.1l8529.25 0c1284.47,0 2326.3,1041.83 2326.3,2326.3l0 8529.25m-663.77 2403.12c-436.07,446.32 -1034.81,698.35 -1659.02,698.35 -0.87,0 -2.64,0 -3.51,0l-9304.7 0.28c-1284.2,-0.28 -2326.03,-1042.11 -2326.03,-2326.62l0 -9304.66c0,-655.29 270.52,-1246.97 705.69,-1669.28"/>
  </g>
 </g>
</svg>
